<svg aria-hidden="true" style="position: absolute; width: 0; height: 0; overflow: hidden;" version="1.1" xmlns="http://www.w3.org/2000/svg" xmlns:xlink="http://www.w3.org/1999/xlink">
<defs>
<!-- These icons are sourced from Google’s Material Icons set,
licensed under the terms of the Apache 2.0 License -->
<!-- from: action/account_circle/materialiconsround/24px.svg -->
<symbol id="icon-profile" viewBox="0 0 24 24">
<path d="M0 0h24v24H0V0z" fill="none" />
<path d="M12 2C6.48 2 2 6.48 2 12s4.48 10 10 10 10-4.48 10-10S17.52 2 12 2zm0 3c1.66 0 3 1.34 3 3s-1.34 3-3 3-3-1.34-3-3 1.34-3 3-3zm0 14.2c-2.5 0-4.71-1.28-6-3.22.03-1.99 4-3.08 6-3.08 1.99 0 5.97 1.09 6 3.08-1.29 1.94-3.5 3.22-6 3.22z" />
</symbol>
<!-- from: action/bug_report/materialiconsround/24px.svg -->
<symbol id="icon-bug_report" viewBox="0 0 24 24">
<path d="M0 0h24v24H0V0z" fill="none" />
<path d="M19 8h-1.81c-.45-.78-1.07-1.45-1.82-1.96l.93-.93c.39-.39.39-1.02 0-1.41-.39-.39-1.02-.39-1.41 0l-1.47 1.47C12.96 5.06 12.49 5 12 5s-.96.06-1.41.17L9.11 3.7c-.39-.39-1.02-.39-1.41 0-.39.39-.39 1.02 0 1.41l.92.93C7.88 6.55 7.26 7.22 6.81 8H5c-.55 0-1 .45-1 1s.45 1 1 1h1.09c-.05.33-.09.66-.09 1v1H5c-.55 0-1 .45-1 1s.45 1 1 1h1v1c0 .34.04.67.09 1H5c-.55 0-1 .45-1 1s.45 1 1 1h1.81c1.04 1.79 2.97 3 5.19 3s4.15-1.21 5.19-3H19c.55 0 1-.45 1-1s-.45-1-1-1h-1.09c.05-.33.09-.66.09-1v-1h1c.55 0 1-.45 1-1s-.45-1-1-1h-1v-1c0-.34-.04-.67-.09-1H19c.55 0 1-.45 1-1s-.45-1-1-1zm-6 8h-2c-.55 0-1-.45-1-1s.45-1 1-1h2c.55 0 1 .45 1 1s-.45 1-1 1zm0-4h-2c-.55 0-1-.45-1-1s.45-1 1-1h2c.55 0 1 .45 1 1s-.45 1-1 1z" />
</symbol>
<!-- from: action/done/materialiconsround/24px.svg -->
<symbol id="icon-done" viewBox="0 0 24 24">
<path d="M0 0h24v24H0V0z" fill="none" />
<path d="M9 16.2l-3.5-3.5c-.39-.39-1.01-.39-1.4 0-.39.39-.39 1.01 0 1.4l4.19 4.19c.39.39 1.02.39 1.41 0L20.3 7.7c.39-.39.39-1.01 0-1.4-.39-.39-1.01-.39-1.4 0L9 16.2z" />
</symbol>
<!-- from: action/logout/materialicons/24px.svg -->
<symbol id="icon-logout" viewBox="0 0 24 24">
<path d="M0 0h24v24H0z" fill="none" />
<path d="M17 7l-1.41 1.41L18.17 11H8v2h10.17l-2.58 2.58L17 17l5-5zM4 5h8V3H4c-1.1 0-2 .9-2 2v14c0 1.1.9 2 2 2h8v-2H4V5z" />
</symbol>
<!-- from: action/login/materialiconsround/24px.svg -->
<symbol id="icon-login" viewBox="0 0 24 24">
<g><rect fill="none" height="24" width="24" /><rect fill="none" height="24" width="24" /></g>
<g><path d="M10.3,7.7L10.3,7.7c-0.39,0.39-0.39,1.01,0,1.4l1.9,1.9H3c-0.55,0-1,0.45-1,1v0c0,0.55,0.45,1,1,1h9.2l-1.9,1.9 c-0.39,0.39-0.39,1.01,0,1.4l0,0c0.39,0.39,1.01,0.39,1.4,0l3.59-3.59c0.39-0.39,0.39-1.02,0-1.41L11.7,7.7 C11.31,7.31,10.69,7.31,10.3,7.7z M20,19h-7c-0.55,0-1,0.45-1,1v0c0,0.55,0.45,1,1,1h7c1.1,0,2-0.9,2-2V5c0-1.1-0.9-2-2-2h-7 c-0.55,0-1,0.45-1,1v0c0,0.55,0.45,1,1,1h7V19z" /></g>
</symbol>
<!-- from: action/exit_to_app/materialiconsround/24px.svg -->
<symbol id="icon-exit_to_app" viewBox="0 0 24 24">
<path d="M0 0h24v24H0V0z" fill="none" />
<path d="M10.79 16.29c.39.39 1.02.39 1.41 0l3.59-3.59c.39-.39.39-1.02 0-1.41L12.2 7.7c-.39-.39-1.02-.39-1.41 0-.39.39-.39 1.02 0 1.41L12.67 11H4c-.55 0-1 .45-1 1s.45 1 1 1h8.67l-1.88 1.88c-.39.39-.38 1.03 0 1.41zM19 3H5c-1.11 0-2 .9-2 2v3c0 .55.45 1 1 1s1-.45 1-1V6c0-.55.45-1 1-1h12c.55 0 1 .45 1 1v12c0 .55-.45 1-1 1H6c-.55 0-1-.45-1-1v-2c0-.55-.45-1-1-1s-1 .45-1 1v3c0 1.1.9 2 2 2h14c1.1 0 2-.9 2-2V5c0-1.1-.9-2-2-2z" />
</symbol>
<!-- from: communication/qr_code/materialiconsround/24px.svg -->
<symbol id="icon-qrcode" viewBox="0 0 24 24">
<g><rect fill="none" height="24" width="24" /><rect fill="none" height="24" width="24" /></g>
<g><g><path d="M5,11h4c1.1,0,2-0.9,2-2V5c0-1.1-0.9-2-2-2H5C3.9,3,3,3.9,3,5v4C3,10.1,3.9,11,5,11z M5,5h4v4H5V5z" /><path d="M5,21h4c1.1,0,2-0.9,2-2v-4c0-1.1-0.9-2-2-2H5c-1.1,0-2,0.9-2,2v4C3,20.1,3.9,21,5,21z M5,15h4v4H5V15z" /><path d="M13,5v4c0,1.1,0.9,2,2,2h4c1.1,0,2-0.9,2-2V5c0-1.1-0.9-2-2-2h-4C13.9,3,13,3.9,13,5z M19,9h-4V5h4V9z" /><path d="M21,20.5v-1c0-0.28-0.22-0.5-0.5-0.5h-1c-0.28,0-0.5,0.22-0.5,0.5v1c0,0.28,0.22,0.5,0.5,0.5h1C20.78,21,21,20.78,21,20.5 z" /><path d="M13,13.5v1c0,0.28,0.22,0.5,0.5,0.5h1c0.28,0,0.5-0.22,0.5-0.5v-1c0-0.28-0.22-0.5-0.5-0.5h-1C13.22,13,13,13.22,13,13.5z" /><path d="M16.5,15h-1c-0.28,0-0.5,0.22-0.5,0.5v1c0,0.28,0.22,0.5,0.5,0.5h1c0.28,0,0.5-0.22,0.5-0.5v-1C17,15.22,16.78,15,16.5,15 z" /><path d="M13,17.5v1c0,0.28,0.22,0.5,0.5,0.5h1c0.28,0,0.5-0.22,0.5-0.5v-1c0-0.28-0.22-0.5-0.5-0.5h-1C13.22,17,13,17.22,13,17.5z" /><path d="M15.5,21h1c0.28,0,0.5-0.22,0.5-0.5v-1c0-0.28-0.22-0.5-0.5-0.5h-1c-0.28,0-0.5,0.22-0.5,0.5v1C15,20.78,15.22,21,15.5,21 z" /><path d="M17.5,19h1c0.28,0,0.5-0.22,0.5-0.5v-1c0-0.28-0.22-0.5-0.5-0.5h-1c-0.28,0-0.5,0.22-0.5,0.5v1C17,18.78,17.22,19,17.5,19 z" /><path d="M18.5,13h-1c-0.28,0-0.5,0.22-0.5,0.5v1c0,0.28,0.22,0.5,0.5,0.5h1c0.28,0,0.5-0.22,0.5-0.5v-1C19,13.22,18.78,13,18.5,13 z" /><path d="M19.5,17h1c0.28,0,0.5-0.22,0.5-0.5v-1c0-0.28-0.22-0.5-0.5-0.5h-1c-0.28,0-0.5,0.22-0.5,0.5v1C19,16.78,19.22,17,19.5,17 z" /></g></g>
</symbol>
<!-- from: communication/vpn_key/materialiconsround/24px.svg -->
<symbol id="icon-passwd" viewBox="0 0 24 24">
<path d="M0 0h24v24H0V0z" fill="none" />
<path d="M12.65 10C11.7 7.31 8.9 5.5 5.77 6.12c-2.29.46-4.15 2.29-4.63 4.58C.32 14.57 3.26 18 7 18c2.61 0 4.83-1.67 5.65-4H17v2c0 1.1.9 2 2 2s2-.9 2-2v-2c1.1 0 2-.9 2-2s-.9-2-2-2h-8.35zM7 14c-1.1 0-2-.9-2-2s.9-2 2-2 2 .9 2 2-.9 2-2 2z" />
</symbol>
<!-- from: content/add_circle_outline/materialiconsround/24px.svg -->
<symbol id="icon-add" viewBox="0 0 24 24">
<path d="M0 0h24v24H0V0z" fill="none" />
<path d="M12 7c-.55 0-1 .45-1 1v3H8c-.55 0-1 .45-1 1s.45 1 1 1h3v3c0 .55.45 1 1 1s1-.45 1-1v-3h3c.55 0 1-.45 1-1s-.45-1-1-1h-3V8c0-.55-.45-1-1-1zm0-5C6.48 2 2 6.48 2 12s4.48 10 10 10 10-4.48 10-10S17.52 2 12 2zm0 18c-4.41 0-8-3.59-8-8s3.59-8 8-8 8 3.59 8 8-3.59 8-8 8z" />
</symbol>
<!-- from: content/add_link/materialicons/24px.svg -->
<symbol id="icon-create_link" viewBox="0 0 24 24">
<path d="M0 0h24v24H0" fill="none" />
<path d="M8 11h8v2H8zm12.1 1H22c0-2.76-2.24-5-5-5h-4v1.9h4c1.71 0 3.1 1.39 3.1 3.1zM3.9 12c0-1.71 1.39-3.1 3.1-3.1h4V7H7c-2.76 0-5 2.24-5 5s2.24 5 5 5h4v-1.9H7c-1.71 0-3.1-1.39-3.1-3.1zM19 12h-2v3h-3v2h3v3h2v-3h3v-2h-3z" />
</symbol>
<!-- from: content/create/materialiconsround/24px.svg -->
<symbol id="icon-edit" viewBox="0 0 24 24">
<path d="M0 0h24v24H0V0z" fill="none" />
<path d="M3 17.46v3.04c0 .28.22.5.5.5h3.04c.13 0 .26-.05.35-.15L17.81 9.94l-3.75-3.75L3.15 17.1c-.1.1-.15.22-.15.36zM20.71 7.04c.39-.39.39-1.02 0-1.41l-2.34-2.34c-.39-.39-1.02-.39-1.41 0l-1.83 1.83 3.75 3.75 1.83-1.83z" />
</symbol>
<!-- from: content/remove_circle_outline/materialiconsround/24px.svg -->
<symbol id="icon-remove" viewBox="0 0 24 24">
<path d="M0 0h24v24H0V0z" fill="none" />
<path d="M7 12c0 .55.45 1 1 1h8c.55 0 1-.45 1-1s-.45-1-1-1H8c-.55 0-1 .45-1 1zm5-10C6.48 2 2 6.48 2 12s4.48 10 10 10 10-4.48 10-10S17.52 2 12 2zm0 18c-4.41 0-8-3.59-8-8s3.59-8 8-8 8 3.59 8 8-3.59 8-8 8z" />
</symbol>
<!-- from: content/content_copy/materialiconsround/24px.svg -->
<symbol id="icon-copy" viewBox="0 0 24 24">
<path d="M0 0h24v24H0V0z" fill="none" />
<path d="M15 1H4c-1.1 0-2 .9-2 2v13c0 .55.45 1 1 1s1-.45 1-1V4c0-.55.45-1 1-1h10c.55 0 1-.45 1-1s-.45-1-1-1zm4 4H8c-1.1 0-2 .9-2 2v14c0 1.1.9 2 2 2h11c1.1 0 2-.9 2-2V7c0-1.1-.9-2-2-2zm-1 16H9c-.55 0-1-.45-1-1V8c0-.55.45-1 1-1h9c.55 0 1 .45 1 1v12c0 .55-.45 1-1 1z" />
</symbol>
<!-- from: content/link_off/materialiconsround/24px.svg -->
<symbol id="icon-remove_link" viewBox="0 0 24 24">
<path d="M0 0h24v24H0V0z" fill="none" />
<path d="M21.94 11.23C21.57 8.76 19.32 7 16.82 7h-2.87c-.52 0-.95.43-.95.95s.43.95.95.95h2.9c1.6 0 3.04 1.14 3.22 2.73.17 1.43-.64 2.69-1.85 3.22l1.4 1.4c1.63-1.02 2.64-2.91 2.32-5.02zM4.12 3.56c-.39-.39-1.02-.39-1.41 0s-.39 1.02 0 1.41l2.4 2.4c-1.94.8-3.27 2.77-3.09 5.04C2.23 15.05 4.59 17 7.23 17h2.82c.52 0 .95-.43.95-.95s-.43-.95-.95-.95H7.16c-1.63 0-3.1-1.19-3.25-2.82-.15-1.72 1.11-3.17 2.75-3.35l2.1 2.1c-.43.09-.76.46-.76.92v.1c0 .52.43.95.95.95h1.78L13 15.27V17h1.73l3.3 3.3c.39.39 1.02.39 1.41 0 .39-.39.39-1.02 0-1.41L4.12 3.56zM16 11.95c0-.52-.43-.95-.95-.95h-.66l1.49 1.49c.07-.13.12-.28.12-.44v-.1z" />
</symbol>
<!-- from: navigation/arrow_back/materialiconsround/24px.svg -->
<symbol id="icon-back" viewBox="0 0 24 24">
<path d="M0 0h24v24H0V0z" fill="none" />
<path d="M19 11H7.83l4.88-4.88c.39-.39.39-1.03 0-1.42-.39-.39-1.02-.39-1.41 0l-6.59 6.59c-.39.39-.39 1.02 0 1.41l6.59 6.59c.39.39 1.02.39 1.41 0 .39-.39.39-1.02 0-1.41L7.83 13H19c.55 0 1-.45 1-1s-.45-1-1-1z" />
</symbol>
<!-- from: navigation/arrow_forward/materialiconsround/24px.svg -->
<symbol id="icon-forward" viewBox="0 0 24 24">
<path d="M0 0h24v24H0V0z" fill="none" />
<path d="M5 13h11.17l-4.88 4.88c-.39.39-.39 1.03 0 1.42.39.39 1.02.39 1.41 0l6.59-6.59c.39-.39.39-1.02 0-1.41l-6.58-6.6c-.39-.39-1.02-.39-1.41 0-.39.39-.39 1.02 0 1.41L16.17 11H5c-.55 0-1 .45-1 1s.45 1 1 1z" />
</symbol>
<!-- from: navigation/cancel/materialiconsround/24px.svg -->
<symbol id="icon-cancel" viewBox="0 0 24 24">
<path d="M0 0h24v24H0V0z" fill="none" opacity=".87" />
<path d="M12 2C6.47 2 2 6.47 2 12s4.47 10 10 10 10-4.47 10-10S17.53 2 12 2zm4.3 14.3c-.39.39-1.02.39-1.41 0L12 13.41 9.11 16.3c-.39.39-1.02.39-1.41 0-.39-.39-.39-1.02 0-1.41L10.59 12 7.7 9.11c-.39-.39-.39-1.02 0-1.41.39-.39 1.02-.39 1.41 0L12 10.59l2.89-2.89c.39-.39 1.02-.39 1.41 0 .39.39.39 1.02 0 1.41L13.41 12l2.89 2.89c.38.38.38 1.02 0 1.41z" />
</symbol>
<!-- from: navigation/more_vert/materialiconsround/24px.svg -->
<symbol id="icon-more" viewBox="0 0 24 24">
<path d="M0 0h24v24H0V0z" fill="none" />
<path d="M12 8c1.1 0 2-.9 2-2s-.9-2-2-2-2 .9-2 2 .9 2 2 2zm0 2c-1.1 0-2 .9-2 2s.9 2 2 2 2-.9 2-2-.9-2-2-2zm0 6c-1.1 0-2 .9-2 2s.9 2 2 2 2-.9 2-2-.9-2-2-2z" />
</symbol>
<!-- from: social/groups/materialiconsround/24px.svg -->
<symbol id="icon-groups" viewBox="0 0 24 24">
<rect fill="none" height="24" width="24" />
<g><path d="M12,12.75c1.63,0,3.07,0.39,4.24,0.9c1.08,0.48,1.76,1.56,1.76,2.73L18,17c0,0.55-0.45,1-1,1H7c-0.55,0-1-0.45-1-1l0-0.61 c0-1.18,0.68-2.26,1.76-2.73C8.93,13.14,10.37,12.75,12,12.75z M4,13c1.1,0,2-0.9,2-2c0-1.1-0.9-2-2-2s-2,0.9-2,2 C2,12.1,2.9,13,4,13z M5.13,14.1C4.76,14.04,4.39,14,4,14c-0.99,0-1.93,0.21-2.78,0.58C0.48,14.9,0,15.62,0,16.43L0,17 c0,0.55,0.45,1,1,1l3.5,0v-1.61C4.5,15.56,4.73,14.78,5.13,14.1z M20,13c1.1,0,2-0.9,2-2c0-1.1-0.9-2-2-2s-2,0.9-2,2 C18,12.1,18.9,13,20,13z M24,16.43c0-0.81-0.48-1.53-1.22-1.85C21.93,14.21,20.99,14,20,14c-0.39,0-0.76,0.04-1.13,0.1 c0.4,0.68,0.63,1.46,0.63,2.29V18l3.5,0c0.55,0,1-0.45,1-1L24,16.43z M12,6c1.66,0,3,1.34,3,3c0,1.66-1.34,3-3,3s-3-1.34-3-3 C9,7.34,10.34,6,12,6z" /></g>
</symbol>
<!-- from: social/group_add/materialiconsround/24px.svg -->
<symbol id="icon-create_group" viewBox="0 0 24 24">
<path d="M0 0h24v24H0V0z" fill="none" />
<path d="M7 10H5V8c0-.55-.45-1-1-1s-1 .45-1 1v2H1c-.55 0-1 .45-1 1s.45 1 1 1h2v2c0 .55.45 1 1 1s1-.45 1-1v-2h2c.55 0 1-.45 1-1s-.45-1-1-1zm11 1c1.66 0 2.99-1.34 2.99-3S19.66 5 18 5c-.32 0-.63.05-.91.14.57.81.9 1.79.9 2.86s-.34 2.04-.9 2.86c.28.09.59.14.91.14zm-5 0c1.66 0 2.99-1.34 2.99-3S14.66 5 13 5s-3 1.34-3 3 1.34 3 3 3zm0 2c-2 0-6 1-6 3v1c0 .55.45 1 1 1h10c.55 0 1-.45 1-1v-1c0-2-4-3-6-3zm6.62.16c.83.73 1.38 1.66 1.38 2.84v1.5c0 .17-.02.34-.05.5h2.55c.28 0 .5-.22.5-.5V16c0-1.54-2.37-2.49-4.38-2.84z" />
</symbol>
<!-- from: navigation/close/materialiconsround/24px.svg -->
<symbol id="icon-close" viewBox="0 0 24 24">
<path d="M0 0h24v24H0V0z" fill="none" />
<path d="M18.3 5.71c-.39-.39-1.02-.39-1.41 0L12 10.59 7.11 5.7c-.39-.39-1.02-.39-1.41 0-.39.39-.39 1.02 0 1.41L10.59 12 5.7 16.89c-.39.39-.39 1.02 0 1.41.39.39 1.02.39 1.41 0L12 13.41l4.89 4.89c.39.39 1.02.39 1.41 0 .39-.39.39-1.02 0-1.41L13.41 12l4.89-4.89c.38-.38.38-1.02 0-1.4z" />
</symbol>
</defs></svg>
