<?xml version="1.0" encoding="UTF-8" standalone="no"?>
<svg
   xmlns:dc="http://purl.org/dc/elements/1.1/"
   xmlns:cc="http://creativecommons.org/ns#"
   xmlns:rdf="http://www.w3.org/1999/02/22-rdf-syntax-ns#"
   xmlns:svg="http://www.w3.org/2000/svg"
   xmlns="http://www.w3.org/2000/svg"
   xmlns:sodipodi="http://sodipodi.sourceforge.net/DTD/sodipodi-0.dtd"
   xmlns:inkscape="http://www.inkscape.org/namespaces/inkscape"
   version="1.1"
   id="svg1424"
   sodipodi:docname="out.svg"
   inkscape:version="1.0.1 (3bc2e813f5, 2020-09-07)">
  <metadata
     id="metadata1430">
    <rdf:RDF>
      <cc:Work
         rdf:about="">
        <dc:format>image/svg+xml</dc:format>
        <dc:type
           rdf:resource="http://purl.org/dc/dcmitype/StillImage" />
      </cc:Work>
    </rdf:RDF>
  </metadata>
  <defs
     id="defs1428" />
  <sodipodi:namedview
     pagecolor="#ffffff"
     bordercolor="#666666"
     borderopacity="1"
     objecttolerance="10"
     gridtolerance="10"
     guidetolerance="10"
     inkscape:pageopacity="0"
     inkscape:pageshadow="2"
     inkscape:window-width="2560"
     inkscape:window-height="1401"
     id="namedview1426"
     showgrid="false"
     inkscape:zoom="3.9666667"
     inkscape:cx="123.61033"
     inkscape:cy="67.707413"
     inkscape:window-x="0"
     inkscape:window-y="39"
     inkscape:window-maximized="0"
     inkscape:current-layer="svg1424" />
  <rect
     style="fill: #000000;"
     width="310"
     height="240"
     x="-25"
     y="-25"
     id="rect1332" />
  <rect
     style="fill: #1f1b17;"
     width="20"
     height="20"
     x="0"
     y="0"
     id="rect1334" />
  <rect
     style="fill: #3d3833;"
     width="20"
     height="20"
     x="30"
     y="0"
     id="rect1336" />
  <rect
     style="fill: #4e4a46;"
     width="20"
     height="20"
     x="60"
     y="0"
     id="rect1338" />
  <rect
     style="fill: #706965;"
     width="20"
     height="20"
     x="90"
     y="0"
     id="rect1340" />
  <rect
     style="fill: #8f8983;"
     width="20"
     height="20"
     x="120"
     y="0"
     id="rect1342" />
  <rect
     style="fill: #b1aca6;"
     width="20"
     height="20"
     x="150"
     y="0"
     id="rect1344" />
  <rect
     style="fill: #cac3bd;"
     width="20"
     height="20"
     x="180"
     y="0"
     id="rect1346" />
  <rect
     style="fill: #e3e1df;"
     width="20"
     height="20"
     x="210"
     y="0"
     id="rect1348" />
  <rect
     style="fill: #f6f5f4;"
     width="20"
     height="20"
     x="240"
     y="0"
     id="rect1350" />
  <rect
     style="fill:#062243;fill-opacity:1"
     width="20"
     height="20"
     x="0"
     y="40"
     id="rect1352" />
  <rect
     style="fill:#0f3462;fill-opacity:1"
     width="20"
     height="20"
     x="30"
     y="40"
     id="rect1354" />
  <rect
     style="fill:#0e4276;fill-opacity:1"
     width="20"
     height="20"
     x="60"
     y="40"
     id="rect1356" />
  <rect
     style="fill:#225994;fill-opacity:1"
     width="20"
     height="20"
     x="90"
     y="40"
     id="rect1358" />
  <rect
     style="fill:#4182c7;fill-opacity:1"
     width="20"
     height="20"
     x="120"
     y="40"
     id="rect1360" />
  <rect
     style="fill:#72a7e3;fill-opacity:1"
     width="20"
     height="20"
     x="150"
     y="40"
     id="rect1362" />
  <rect
     style="fill:#9dc4f0;fill-opacity:1"
     width="20"
     height="20"
     x="180"
     y="40"
     id="rect1364" />
  <rect
     style="fill:#b5d2f3;fill-opacity:1"
     width="20"
     height="20"
     x="210"
     y="40"
     id="rect1366" />
  <rect
     style="fill:#e4f0fd;fill-opacity:1"
     width="20"
     height="20"
     x="240"
     y="40"
     id="rect1368" />
  <rect
     style="fill: #340e03;"
     width="20"
     height="20"
     x="0"
     y="80"
     id="rect1370" />
  <rect
     style="fill: #681f0b;"
     width="20"
     height="20"
     x="30"
     y="80"
     id="rect1372" />
  <rect
     style="fill: #883017;"
     width="20"
     height="20"
     x="60"
     y="80"
     id="rect1374" />
  <rect
     style="fill: #a33d21;"
     width="20"
     height="20"
     x="90"
     y="80"
     id="rect1376" />
  <rect
     style="fill: #c95e40;"
     width="20"
     height="20"
     x="120"
     y="80"
     id="rect1378" />
  <rect
     style="fill: #ed947c;"
     width="20"
     height="20"
     x="150"
     y="80"
     id="rect1380" />
  <rect
     style="fill: #f2ac99;"
     width="20"
     height="20"
     x="180"
     y="80"
     id="rect1382" />
  <rect
     style="fill: #fbc2b3;"
     width="20"
     height="20"
     x="210"
     y="80"
     id="rect1384" />
  <rect
     style="fill: #fef1ed;"
     width="20"
     height="20"
     x="240"
     y="80"
     id="rect1386" />
  <rect
     style="fill: #302100;"
     width="20"
     height="20"
     x="0"
     y="120"
     id="rect1388" />
  <rect
     style="fill: #563600;"
     width="20"
     height="20"
     x="30"
     y="120"
     id="rect1390" />
  <rect
     style="fill: #795b00;"
     width="20"
     height="20"
     x="60"
     y="120"
     id="rect1392" />
  <rect
     style="fill: #a07501;"
     width="20"
     height="20"
     x="90"
     y="120"
     id="rect1394" />
  <rect
     style="fill: #c79b0e;"
     width="20"
     height="20"
     x="120"
     y="120"
     id="rect1396" />
  <rect
     style="fill: #f4ce3f;"
     width="20"
     height="20"
     x="150"
     y="120"
     id="rect1398" />
  <rect
     style="fill:#fee577;fill-opacity:1"
     width="20"
     height="20"
     x="180"
     y="120"
     id="rect1400" />
  <rect
     style="fill:#fef1c1;fill-opacity:1"
     width="20"
     height="20"
     x="210"
     y="120"
     id="rect1402" />
  <rect
     style="fill:#fff8e8;fill-opacity:1"
     width="20"
     height="20"
     x="240"
     y="120"
     id="rect1404" />
  <rect
     style="fill:#172f03;fill-opacity:1"
     width="20"
     height="20"
     x="0"
     y="160"
     id="rect1406" />
  <rect
     style="fill:#244608;fill-opacity:1"
     width="20"
     height="20"
     x="30"
     y="160"
     id="rect1408" />
  <rect
     style="fill:#407713;fill-opacity:1"
     width="20"
     height="20"
     x="60"
     y="160"
     id="rect1410" />
  <rect
     style="fill:#548f19;fill-opacity:1"
     width="20"
     height="20"
     x="90"
     y="160"
     id="rect1412" />
  <rect
     style="fill:#7fc644;fill-opacity:1"
     width="20"
     height="20"
     x="120"
     y="160"
     id="rect1414" />
  <rect
     style="fill:#a1e06e;fill-opacity:1"
     width="20"
     height="20"
     x="150"
     y="160"
     id="rect1416" />
  <rect
     style="fill:#c0ed9c;fill-opacity:1"
     width="20"
     height="20"
     x="180"
     y="160"
     id="rect1418" />
  <rect
     style="fill:#dbf6c5;fill-opacity:1"
     width="20"
     height="20"
     x="210"
     y="160"
     id="rect1420" />
  <rect
     style="fill:#effbe6;fill-opacity:1"
     width="20"
     height="20"
     x="240"
     y="160"
     id="rect1422" />
</svg>
